<?xml version="1.0" encoding="utf-8" standalone="no"?>
<!DOCTYPE svg PUBLIC "-//W3C//DTD SVG 1.1//EN"
  "http://www.w3.org/Graphics/SVG/1.1/DTD/svg11.dtd">
<svg xmlns:xlink="http://www.w3.org/1999/xlink" width="720pt" height="360pt" viewBox="0 0 720 360" xmlns="http://www.w3.org/2000/svg" version="1.1">
 <metadata>
  <rdf:RDF xmlns:dc="http://purl.org/dc/elements/1.1/" xmlns:cc="http://creativecommons.org/ns#" xmlns:rdf="http://www.w3.org/1999/02/22-rdf-syntax-ns#">
   <cc:Work>
    <dc:type rdf:resource="http://purl.org/dc/dcmitype/StillImage"/>
    <dc:date>2023-12-27T17:19:29.530149</dc:date>
    <dc:format>image/svg+xml</dc:format>
    <dc:creator>
     <cc:Agent>
      <dc:title>Matplotlib v3.8.2, https://matplotlib.org/</dc:title>
     </cc:Agent>
    </dc:creator>
   </cc:Work>
  </rdf:RDF>
 </metadata>
 <defs>
  <style type="text/css">*{stroke-linejoin: round; stroke-linecap: butt}</style>
 </defs>
 <g id="figure_1">
  <g id="patch_1">
   <path d="M 0 360 
L 720 360 
L 720 0 
L 0 0 
z
" style="fill: #ffffff"/>
  </g>
  <g id="axes_1">
   <g id="patch_2">
    <path d="M 10.8 174.6 
L 177.3 174.6 
L 177.3 26.88 
L 10.8 26.88 
z
" style="fill: #ffffff"/>
   </g>
   <g id="matplotlib.axis_1"/>
   <g id="matplotlib.axis_2"/>
   <g id="line2d_1">
    <path d="M 52.425 137.67 
L 135.675 137.67 
L 52.425 63.81 
L 135.675 63.81 
" clip-path="url(#pf8426c279a)" style="fill: none; stroke: #1f77b4; stroke-width: 1.5; stroke-linecap: square"/>
   </g>
   <g id="patch_3">
    <path d="M 10.8 174.6 
L 10.8 26.88 
" style="fill: none; stroke: #000000; stroke-width: 0.8; stroke-linejoin: miter; stroke-linecap: square"/>
   </g>
   <g id="patch_4">
    <path d="M 177.3 174.6 
L 177.3 26.88 
" style="fill: none; stroke: #000000; stroke-width: 0.8; stroke-linejoin: miter; stroke-linecap: square"/>
   </g>
   <g id="patch_5">
    <path d="M 10.8 174.6 
L 177.3 174.6 
" style="fill: none; stroke: #000000; stroke-width: 0.8; stroke-linejoin: miter; stroke-linecap: square"/>
   </g>
   <g id="patch_6">
    <path d="M 10.8 26.88 
L 177.3 26.88 
" style="fill: none; stroke: #000000; stroke-width: 0.8; stroke-linejoin: miter; stroke-linecap: square"/>
   </g>
   <g id="text_1">
    <!-- Z-Order Curve, Level 1 -->
    <g transform="translate(25.67625 20.88) scale(0.12 -0.12)">
     <defs>
      <path id="DejaVuSans-5a" d="M 359 4666 
L 4025 4666 
L 4025 4184 
L 1075 531 
L 4097 531 
L 4097 0 
L 288 0 
L 288 481 
L 3238 4134 
L 359 4134 
L 359 4666 
z
" transform="scale(0.015625)"/>
      <path id="DejaVuSans-2d" d="M 313 2009 
L 1997 2009 
L 1997 1497 
L 313 1497 
L 313 2009 
z
" transform="scale(0.015625)"/>
      <path id="DejaVuSans-4f" d="M 2522 4238 
Q 1834 4238 1429 3725 
Q 1025 3213 1025 2328 
Q 1025 1447 1429 934 
Q 1834 422 2522 422 
Q 3209 422 3611 934 
Q 4013 1447 4013 2328 
Q 4013 3213 3611 3725 
Q 3209 4238 2522 4238 
z
M 2522 4750 
Q 3503 4750 4090 4092 
Q 4678 3434 4678 2328 
Q 4678 1225 4090 567 
Q 3503 -91 2522 -91 
Q 1538 -91 948 565 
Q 359 1222 359 2328 
Q 359 3434 948 4092 
Q 1538 4750 2522 4750 
z
" transform="scale(0.015625)"/>
      <path id="DejaVuSans-72" d="M 2631 2963 
Q 2534 3019 2420 3045 
Q 2306 3072 2169 3072 
Q 1681 3072 1420 2755 
Q 1159 2438 1159 1844 
L 1159 0 
L 581 0 
L 581 3500 
L 1159 3500 
L 1159 2956 
Q 1341 3275 1631 3429 
Q 1922 3584 2338 3584 
Q 2397 3584 2469 3576 
Q 2541 3569 2628 3553 
L 2631 2963 
z
" transform="scale(0.015625)"/>
      <path id="DejaVuSans-64" d="M 2906 2969 
L 2906 4863 
L 3481 4863 
L 3481 0 
L 2906 0 
L 2906 525 
Q 2725 213 2448 61 
Q 2172 -91 1784 -91 
Q 1150 -91 751 415 
Q 353 922 353 1747 
Q 353 2572 751 3078 
Q 1150 3584 1784 3584 
Q 2172 3584 2448 3432 
Q 2725 3281 2906 2969 
z
M 947 1747 
Q 947 1113 1208 752 
Q 1469 391 1925 391 
Q 2381 391 2643 752 
Q 2906 1113 2906 1747 
Q 2906 2381 2643 2742 
Q 2381 3103 1925 3103 
Q 1469 3103 1208 2742 
Q 947 2381 947 1747 
z
" transform="scale(0.015625)"/>
      <path id="DejaVuSans-65" d="M 3597 1894 
L 3597 1613 
L 953 1613 
Q 991 1019 1311 708 
Q 1631 397 2203 397 
Q 2534 397 2845 478 
Q 3156 559 3463 722 
L 3463 178 
Q 3153 47 2828 -22 
Q 2503 -91 2169 -91 
Q 1331 -91 842 396 
Q 353 884 353 1716 
Q 353 2575 817 3079 
Q 1281 3584 2069 3584 
Q 2775 3584 3186 3129 
Q 3597 2675 3597 1894 
z
M 3022 2063 
Q 3016 2534 2758 2815 
Q 2500 3097 2075 3097 
Q 1594 3097 1305 2825 
Q 1016 2553 972 2059 
L 3022 2063 
z
" transform="scale(0.015625)"/>
      <path id="DejaVuSans-20" transform="scale(0.015625)"/>
      <path id="DejaVuSans-43" d="M 4122 4306 
L 4122 3641 
Q 3803 3938 3442 4084 
Q 3081 4231 2675 4231 
Q 1875 4231 1450 3742 
Q 1025 3253 1025 2328 
Q 1025 1406 1450 917 
Q 1875 428 2675 428 
Q 3081 428 3442 575 
Q 3803 722 4122 1019 
L 4122 359 
Q 3791 134 3420 21 
Q 3050 -91 2638 -91 
Q 1578 -91 968 557 
Q 359 1206 359 2328 
Q 359 3453 968 4101 
Q 1578 4750 2638 4750 
Q 3056 4750 3426 4639 
Q 3797 4528 4122 4306 
z
" transform="scale(0.015625)"/>
      <path id="DejaVuSans-75" d="M 544 1381 
L 544 3500 
L 1119 3500 
L 1119 1403 
Q 1119 906 1312 657 
Q 1506 409 1894 409 
Q 2359 409 2629 706 
Q 2900 1003 2900 1516 
L 2900 3500 
L 3475 3500 
L 3475 0 
L 2900 0 
L 2900 538 
Q 2691 219 2414 64 
Q 2138 -91 1772 -91 
Q 1169 -91 856 284 
Q 544 659 544 1381 
z
M 1991 3584 
L 1991 3584 
z
" transform="scale(0.015625)"/>
      <path id="DejaVuSans-76" d="M 191 3500 
L 800 3500 
L 1894 563 
L 2988 3500 
L 3597 3500 
L 2284 0 
L 1503 0 
L 191 3500 
z
" transform="scale(0.015625)"/>
      <path id="DejaVuSans-2c" d="M 750 794 
L 1409 794 
L 1409 256 
L 897 -744 
L 494 -744 
L 750 256 
L 750 794 
z
" transform="scale(0.015625)"/>
      <path id="DejaVuSans-4c" d="M 628 4666 
L 1259 4666 
L 1259 531 
L 3531 531 
L 3531 0 
L 628 0 
L 628 4666 
z
" transform="scale(0.015625)"/>
      <path id="DejaVuSans-6c" d="M 603 4863 
L 1178 4863 
L 1178 0 
L 603 0 
L 603 4863 
z
" transform="scale(0.015625)"/>
      <path id="DejaVuSans-31" d="M 794 531 
L 1825 531 
L 1825 4091 
L 703 3866 
L 703 4441 
L 1819 4666 
L 2450 4666 
L 2450 531 
L 3481 531 
L 3481 0 
L 794 0 
L 794 531 
z
" transform="scale(0.015625)"/>
     </defs>
     <use xlink:href="#DejaVuSans-5a"/>
     <use xlink:href="#DejaVuSans-2d" x="66.755859"/>
     <use xlink:href="#DejaVuSans-4f" x="105.589844"/>
     <use xlink:href="#DejaVuSans-72" x="184.300781"/>
     <use xlink:href="#DejaVuSans-64" x="223.664062"/>
     <use xlink:href="#DejaVuSans-65" x="287.140625"/>
     <use xlink:href="#DejaVuSans-72" x="348.664062"/>
     <use xlink:href="#DejaVuSans-20" x="389.777344"/>
     <use xlink:href="#DejaVuSans-43" x="421.564453"/>
     <use xlink:href="#DejaVuSans-75" x="491.388672"/>
     <use xlink:href="#DejaVuSans-72" x="554.767578"/>
     <use xlink:href="#DejaVuSans-76" x="595.880859"/>
     <use xlink:href="#DejaVuSans-65" x="655.060547"/>
     <use xlink:href="#DejaVuSans-2c" x="716.583984"/>
     <use xlink:href="#DejaVuSans-20" x="748.371094"/>
     <use xlink:href="#DejaVuSans-4c" x="780.158203"/>
     <use xlink:href="#DejaVuSans-65" x="834.121094"/>
     <use xlink:href="#DejaVuSans-76" x="895.644531"/>
     <use xlink:href="#DejaVuSans-65" x="954.824219"/>
     <use xlink:href="#DejaVuSans-6c" x="1016.347656"/>
     <use xlink:href="#DejaVuSans-20" x="1044.130859"/>
     <use xlink:href="#DejaVuSans-31" x="1075.917969"/>
    </g>
   </g>
  </g>
  <g id="axes_2">
   <g id="patch_7">
    <path d="M 188.1 174.6 
L 354.6 174.6 
L 354.6 26.88 
L 188.1 26.88 
z
" style="fill: #ffffff"/>
   </g>
   <g id="matplotlib.axis_3"/>
   <g id="matplotlib.axis_4"/>
   <g id="line2d_2">
    <path d="M 208.9125 156.135 
L 250.5375 156.135 
L 208.9125 119.205 
L 250.5375 119.205 
L 292.1625 156.135 
L 333.7875 156.135 
L 292.1625 119.205 
L 333.7875 119.205 
L 208.9125 82.275 
L 250.5375 82.275 
L 208.9125 45.345 
L 250.5375 45.345 
L 292.1625 82.275 
L 333.7875 82.275 
L 292.1625 45.345 
L 333.7875 45.345 
" clip-path="url(#pf53d5a641e)" style="fill: none; stroke: #1f77b4; stroke-width: 1.5; stroke-linecap: square"/>
   </g>
   <g id="patch_8">
    <path d="M 188.1 174.6 
L 188.1 26.88 
" style="fill: none; stroke: #000000; stroke-width: 0.8; stroke-linejoin: miter; stroke-linecap: square"/>
   </g>
   <g id="patch_9">
    <path d="M 354.6 174.6 
L 354.6 26.88 
" style="fill: none; stroke: #000000; stroke-width: 0.8; stroke-linejoin: miter; stroke-linecap: square"/>
   </g>
   <g id="patch_10">
    <path d="M 188.1 174.6 
L 354.6 174.6 
" style="fill: none; stroke: #000000; stroke-width: 0.8; stroke-linejoin: miter; stroke-linecap: square"/>
   </g>
   <g id="patch_11">
    <path d="M 188.1 26.88 
L 354.6 26.88 
" style="fill: none; stroke: #000000; stroke-width: 0.8; stroke-linejoin: miter; stroke-linecap: square"/>
   </g>
   <g id="text_2">
    <!-- Z-Order Curve, Level 2 -->
    <g transform="translate(202.97625 20.88) scale(0.12 -0.12)">
     <defs>
      <path id="DejaVuSans-32" d="M 1228 531 
L 3431 531 
L 3431 0 
L 469 0 
L 469 531 
Q 828 903 1448 1529 
Q 2069 2156 2228 2338 
Q 2531 2678 2651 2914 
Q 2772 3150 2772 3378 
Q 2772 3750 2511 3984 
Q 2250 4219 1831 4219 
Q 1534 4219 1204 4116 
Q 875 4013 500 3803 
L 500 4441 
Q 881 4594 1212 4672 
Q 1544 4750 1819 4750 
Q 2544 4750 2975 4387 
Q 3406 4025 3406 3419 
Q 3406 3131 3298 2873 
Q 3191 2616 2906 2266 
Q 2828 2175 2409 1742 
Q 1991 1309 1228 531 
z
" transform="scale(0.015625)"/>
     </defs>
     <use xlink:href="#DejaVuSans-5a"/>
     <use xlink:href="#DejaVuSans-2d" x="66.755859"/>
     <use xlink:href="#DejaVuSans-4f" x="105.589844"/>
     <use xlink:href="#DejaVuSans-72" x="184.300781"/>
     <use xlink:href="#DejaVuSans-64" x="223.664062"/>
     <use xlink:href="#DejaVuSans-65" x="287.140625"/>
     <use xlink:href="#DejaVuSans-72" x="348.664062"/>
     <use xlink:href="#DejaVuSans-20" x="389.777344"/>
     <use xlink:href="#DejaVuSans-43" x="421.564453"/>
     <use xlink:href="#DejaVuSans-75" x="491.388672"/>
     <use xlink:href="#DejaVuSans-72" x="554.767578"/>
     <use xlink:href="#DejaVuSans-76" x="595.880859"/>
     <use xlink:href="#DejaVuSans-65" x="655.060547"/>
     <use xlink:href="#DejaVuSans-2c" x="716.583984"/>
     <use xlink:href="#DejaVuSans-20" x="748.371094"/>
     <use xlink:href="#DejaVuSans-4c" x="780.158203"/>
     <use xlink:href="#DejaVuSans-65" x="834.121094"/>
     <use xlink:href="#DejaVuSans-76" x="895.644531"/>
     <use xlink:href="#DejaVuSans-65" x="954.824219"/>
     <use xlink:href="#DejaVuSans-6c" x="1016.347656"/>
     <use xlink:href="#DejaVuSans-20" x="1044.130859"/>
     <use xlink:href="#DejaVuSans-32" x="1075.917969"/>
    </g>
   </g>
  </g>
  <g id="axes_3">
   <g id="patch_12">
    <path d="M 365.4 174.6 
L 531.9 174.6 
L 531.9 26.88 
L 365.4 26.88 
z
" style="fill: #ffffff"/>
   </g>
   <g id="matplotlib.axis_5"/>
   <g id="matplotlib.axis_6"/>
   <g id="line2d_3">
    <path d="M 375.80625 165.3675 
L 396.61875 165.3675 
L 375.80625 146.9025 
L 396.61875 146.9025 
L 417.43125 165.3675 
L 438.24375 165.3675 
L 417.43125 146.9025 
L 438.24375 146.9025 
L 375.80625 128.4375 
L 396.61875 128.4375 
L 375.80625 109.9725 
L 396.61875 109.9725 
L 417.43125 128.4375 
L 438.24375 128.4375 
L 417.43125 109.9725 
L 438.24375 109.9725 
L 459.05625 165.3675 
L 479.86875 165.3675 
L 459.05625 146.9025 
L 479.86875 146.9025 
L 500.68125 165.3675 
L 521.49375 165.3675 
L 500.68125 146.9025 
L 521.49375 146.9025 
L 459.05625 128.4375 
L 479.86875 128.4375 
L 459.05625 109.9725 
L 479.86875 109.9725 
L 500.68125 128.4375 
L 521.49375 128.4375 
L 500.68125 109.9725 
L 521.49375 109.9725 
L 375.80625 91.5075 
L 396.61875 91.5075 
L 375.80625 73.0425 
L 396.61875 73.0425 
L 417.43125 91.5075 
L 438.24375 91.5075 
L 417.43125 73.0425 
L 438.24375 73.0425 
L 375.80625 54.5775 
L 396.61875 54.5775 
L 375.80625 36.1125 
L 396.61875 36.1125 
L 417.43125 54.5775 
L 438.24375 54.5775 
L 417.43125 36.1125 
L 438.24375 36.1125 
L 459.05625 91.5075 
L 479.86875 91.5075 
L 459.05625 73.0425 
L 479.86875 73.0425 
L 500.68125 91.5075 
L 521.49375 91.5075 
L 500.68125 73.0425 
L 521.49375 73.0425 
L 459.05625 54.5775 
L 479.86875 54.5775 
L 459.05625 36.1125 
L 479.86875 36.1125 
L 500.68125 54.5775 
L 521.49375 54.5775 
L 500.68125 36.1125 
L 521.49375 36.1125 
" clip-path="url(#p93e0d9aab3)" style="fill: none; stroke: #1f77b4; stroke-width: 1.5; stroke-linecap: square"/>
   </g>
   <g id="patch_13">
    <path d="M 365.4 174.6 
L 365.4 26.88 
" style="fill: none; stroke: #000000; stroke-width: 0.8; stroke-linejoin: miter; stroke-linecap: square"/>
   </g>
   <g id="patch_14">
    <path d="M 531.9 174.6 
L 531.9 26.88 
" style="fill: none; stroke: #000000; stroke-width: 0.8; stroke-linejoin: miter; stroke-linecap: square"/>
   </g>
   <g id="patch_15">
    <path d="M 365.4 174.6 
L 531.9 174.6 
" style="fill: none; stroke: #000000; stroke-width: 0.8; stroke-linejoin: miter; stroke-linecap: square"/>
   </g>
   <g id="patch_16">
    <path d="M 365.4 26.88 
L 531.9 26.88 
" style="fill: none; stroke: #000000; stroke-width: 0.8; stroke-linejoin: miter; stroke-linecap: square"/>
   </g>
   <g id="text_3">
    <!-- Z-Order Curve, Level 3 -->
    <g transform="translate(380.27625 20.88) scale(0.12 -0.12)">
     <defs>
      <path id="DejaVuSans-33" d="M 2597 2516 
Q 3050 2419 3304 2112 
Q 3559 1806 3559 1356 
Q 3559 666 3084 287 
Q 2609 -91 1734 -91 
Q 1441 -91 1130 -33 
Q 819 25 488 141 
L 488 750 
Q 750 597 1062 519 
Q 1375 441 1716 441 
Q 2309 441 2620 675 
Q 2931 909 2931 1356 
Q 2931 1769 2642 2001 
Q 2353 2234 1838 2234 
L 1294 2234 
L 1294 2753 
L 1863 2753 
Q 2328 2753 2575 2939 
Q 2822 3125 2822 3475 
Q 2822 3834 2567 4026 
Q 2313 4219 1838 4219 
Q 1578 4219 1281 4162 
Q 984 4106 628 3988 
L 628 4550 
Q 988 4650 1302 4700 
Q 1616 4750 1894 4750 
Q 2613 4750 3031 4423 
Q 3450 4097 3450 3541 
Q 3450 3153 3228 2886 
Q 3006 2619 2597 2516 
z
" transform="scale(0.015625)"/>
     </defs>
     <use xlink:href="#DejaVuSans-5a"/>
     <use xlink:href="#DejaVuSans-2d" x="66.755859"/>
     <use xlink:href="#DejaVuSans-4f" x="105.589844"/>
     <use xlink:href="#DejaVuSans-72" x="184.300781"/>
     <use xlink:href="#DejaVuSans-64" x="223.664062"/>
     <use xlink:href="#DejaVuSans-65" x="287.140625"/>
     <use xlink:href="#DejaVuSans-72" x="348.664062"/>
     <use xlink:href="#DejaVuSans-20" x="389.777344"/>
     <use xlink:href="#DejaVuSans-43" x="421.564453"/>
     <use xlink:href="#DejaVuSans-75" x="491.388672"/>
     <use xlink:href="#DejaVuSans-72" x="554.767578"/>
     <use xlink:href="#DejaVuSans-76" x="595.880859"/>
     <use xlink:href="#DejaVuSans-65" x="655.060547"/>
     <use xlink:href="#DejaVuSans-2c" x="716.583984"/>
     <use xlink:href="#DejaVuSans-20" x="748.371094"/>
     <use xlink:href="#DejaVuSans-4c" x="780.158203"/>
     <use xlink:href="#DejaVuSans-65" x="834.121094"/>
     <use xlink:href="#DejaVuSans-76" x="895.644531"/>
     <use xlink:href="#DejaVuSans-65" x="954.824219"/>
     <use xlink:href="#DejaVuSans-6c" x="1016.347656"/>
     <use xlink:href="#DejaVuSans-20" x="1044.130859"/>
     <use xlink:href="#DejaVuSans-33" x="1075.917969"/>
    </g>
   </g>
  </g>
  <g id="axes_4">
   <g id="patch_17">
    <path d="M 542.7 174.6 
L 709.2 174.6 
L 709.2 26.88 
L 542.7 26.88 
z
" style="fill: #ffffff"/>
   </g>
   <g id="matplotlib.axis_7"/>
   <g id="matplotlib.axis_8"/>
   <g id="line2d_4">
    <path d="M 547.903125 169.98375 
L 558.309375 169.98375 
L 547.903125 160.75125 
L 558.309375 160.75125 
L 568.715625 169.98375 
L 579.121875 169.98375 
L 568.715625 160.75125 
L 579.121875 160.75125 
L 547.903125 151.51875 
L 558.309375 151.51875 
L 547.903125 142.28625 
L 558.309375 142.28625 
L 568.715625 151.51875 
L 579.121875 151.51875 
L 568.715625 142.28625 
L 579.121875 142.28625 
L 589.528125 169.98375 
L 599.934375 169.98375 
L 589.528125 160.75125 
L 599.934375 160.75125 
L 610.340625 169.98375 
L 620.746875 169.98375 
L 610.340625 160.75125 
L 620.746875 160.75125 
L 589.528125 151.51875 
L 599.934375 151.51875 
L 589.528125 142.28625 
L 599.934375 142.28625 
L 610.340625 151.51875 
L 620.746875 151.51875 
L 610.340625 142.28625 
L 620.746875 142.28625 
L 547.903125 133.05375 
L 558.309375 133.05375 
L 547.903125 123.82125 
L 558.309375 123.82125 
L 568.715625 133.05375 
L 579.121875 133.05375 
L 568.715625 123.82125 
L 579.121875 123.82125 
L 547.903125 114.58875 
L 558.309375 114.58875 
L 547.903125 105.35625 
L 558.309375 105.35625 
L 568.715625 114.58875 
L 579.121875 114.58875 
L 568.715625 105.35625 
L 579.121875 105.35625 
L 589.528125 133.05375 
L 599.934375 133.05375 
L 589.528125 123.82125 
L 599.934375 123.82125 
L 610.340625 133.05375 
L 620.746875 133.05375 
L 610.340625 123.82125 
L 620.746875 123.82125 
L 589.528125 114.58875 
L 599.934375 114.58875 
L 589.528125 105.35625 
L 599.934375 105.35625 
L 610.340625 114.58875 
L 620.746875 114.58875 
L 610.340625 105.35625 
L 620.746875 105.35625 
L 631.153125 169.98375 
L 641.559375 169.98375 
L 631.153125 160.75125 
L 641.559375 160.75125 
L 651.965625 169.98375 
L 662.371875 169.98375 
L 651.965625 160.75125 
L 662.371875 160.75125 
L 631.153125 151.51875 
L 641.559375 151.51875 
L 631.153125 142.28625 
L 641.559375 142.28625 
L 651.965625 151.51875 
L 662.371875 151.51875 
L 651.965625 142.28625 
L 662.371875 142.28625 
L 672.778125 169.98375 
L 683.184375 169.98375 
L 672.778125 160.75125 
L 683.184375 160.75125 
L 693.590625 169.98375 
L 703.996875 169.98375 
L 693.590625 160.75125 
L 703.996875 160.75125 
L 672.778125 151.51875 
L 683.184375 151.51875 
L 672.778125 142.28625 
L 683.184375 142.28625 
L 693.590625 151.51875 
L 703.996875 151.51875 
L 693.590625 142.28625 
L 703.996875 142.28625 
L 631.153125 133.05375 
L 641.559375 133.05375 
L 631.153125 123.82125 
L 641.559375 123.82125 
L 651.965625 133.05375 
L 662.371875 133.05375 
L 651.965625 123.82125 
L 662.371875 123.82125 
L 631.153125 114.58875 
L 641.559375 114.58875 
L 631.153125 105.35625 
L 641.559375 105.35625 
L 651.965625 114.58875 
L 662.371875 114.58875 
L 651.965625 105.35625 
L 662.371875 105.35625 
L 672.778125 133.05375 
L 683.184375 133.05375 
L 672.778125 123.82125 
L 683.184375 123.82125 
L 693.590625 133.05375 
L 703.996875 133.05375 
L 693.590625 123.82125 
L 703.996875 123.82125 
L 672.778125 114.58875 
L 683.184375 114.58875 
L 672.778125 105.35625 
L 683.184375 105.35625 
L 693.590625 114.58875 
L 703.996875 114.58875 
L 693.590625 105.35625 
L 703.996875 105.35625 
L 547.903125 96.12375 
L 558.309375 96.12375 
L 547.903125 86.89125 
L 558.309375 86.89125 
L 568.715625 96.12375 
L 579.121875 96.12375 
L 568.715625 86.89125 
L 579.121875 86.89125 
L 547.903125 77.65875 
L 558.309375 77.65875 
L 547.903125 68.42625 
L 558.309375 68.42625 
L 568.715625 77.65875 
L 579.121875 77.65875 
L 568.715625 68.42625 
L 579.121875 68.42625 
L 589.528125 96.12375 
L 599.934375 96.12375 
L 589.528125 86.89125 
L 599.934375 86.89125 
L 610.340625 96.12375 
L 620.746875 96.12375 
L 610.340625 86.89125 
L 620.746875 86.89125 
L 589.528125 77.65875 
L 599.934375 77.65875 
L 589.528125 68.42625 
L 599.934375 68.42625 
L 610.340625 77.65875 
L 620.746875 77.65875 
L 610.340625 68.42625 
L 620.746875 68.42625 
L 547.903125 59.19375 
L 558.309375 59.19375 
L 547.903125 49.96125 
L 558.309375 49.96125 
L 568.715625 59.19375 
L 579.121875 59.19375 
L 568.715625 49.96125 
L 579.121875 49.96125 
L 547.903125 40.72875 
L 558.309375 40.72875 
L 547.903125 31.49625 
L 558.309375 31.49625 
L 568.715625 40.72875 
L 579.121875 40.72875 
L 568.715625 31.49625 
L 579.121875 31.49625 
L 589.528125 59.19375 
L 599.934375 59.19375 
L 589.528125 49.96125 
L 599.934375 49.96125 
L 610.340625 59.19375 
L 620.746875 59.19375 
L 610.340625 49.96125 
L 620.746875 49.96125 
L 589.528125 40.72875 
L 599.934375 40.72875 
L 589.528125 31.49625 
L 599.934375 31.49625 
L 610.340625 40.72875 
L 620.746875 40.72875 
L 610.340625 31.49625 
L 620.746875 31.49625 
L 631.153125 96.12375 
L 641.559375 96.12375 
L 631.153125 86.89125 
L 641.559375 86.89125 
L 651.965625 96.12375 
L 662.371875 96.12375 
L 651.965625 86.89125 
L 662.371875 86.89125 
L 631.153125 77.65875 
L 641.559375 77.65875 
L 631.153125 68.42625 
L 641.559375 68.42625 
L 651.965625 77.65875 
L 662.371875 77.65875 
L 651.965625 68.42625 
L 662.371875 68.42625 
L 672.778125 96.12375 
L 683.184375 96.12375 
L 672.778125 86.89125 
L 683.184375 86.89125 
L 693.590625 96.12375 
L 703.996875 96.12375 
L 693.590625 86.89125 
L 703.996875 86.89125 
L 672.778125 77.65875 
L 683.184375 77.65875 
L 672.778125 68.42625 
L 683.184375 68.42625 
L 693.590625 77.65875 
L 703.996875 77.65875 
L 693.590625 68.42625 
L 703.996875 68.42625 
L 631.153125 59.19375 
L 641.559375 59.19375 
L 631.153125 49.96125 
L 641.559375 49.96125 
L 651.965625 59.19375 
L 662.371875 59.19375 
L 651.965625 49.96125 
L 662.371875 49.96125 
L 631.153125 40.72875 
L 641.559375 40.72875 
L 631.153125 31.49625 
L 641.559375 31.49625 
L 651.965625 40.72875 
L 662.371875 40.72875 
L 651.965625 31.49625 
L 662.371875 31.49625 
L 672.778125 59.19375 
L 683.184375 59.19375 
L 672.778125 49.96125 
L 683.184375 49.96125 
L 693.590625 59.19375 
L 703.996875 59.19375 
L 693.590625 49.96125 
L 703.996875 49.96125 
L 672.778125 40.72875 
L 683.184375 40.72875 
L 672.778125 31.49625 
L 683.184375 31.49625 
L 693.590625 40.72875 
L 703.996875 40.72875 
L 693.590625 31.49625 
L 703.996875 31.49625 
L 703.996875 31.49625 
" clip-path="url(#p1658a12b4f)" style="fill: none; stroke: #1f77b4; stroke-width: 1.5; stroke-linecap: square"/>
   </g>
   <g id="patch_18">
    <path d="M 542.7 174.6 
L 542.7 26.88 
" style="fill: none; stroke: #000000; stroke-width: 0.8; stroke-linejoin: miter; stroke-linecap: square"/>
   </g>
   <g id="patch_19">
    <path d="M 709.2 174.6 
L 709.2 26.88 
" style="fill: none; stroke: #000000; stroke-width: 0.8; stroke-linejoin: miter; stroke-linecap: square"/>
   </g>
   <g id="patch_20">
    <path d="M 542.7 174.6 
L 709.2 174.6 
" style="fill: none; stroke: #000000; stroke-width: 0.8; stroke-linejoin: miter; stroke-linecap: square"/>
   </g>
   <g id="patch_21">
    <path d="M 542.7 26.88 
L 709.2 26.88 
" style="fill: none; stroke: #000000; stroke-width: 0.8; stroke-linejoin: miter; stroke-linecap: square"/>
   </g>
   <g id="text_4">
    <!-- Z-Order Curve, Level 4 -->
    <g transform="translate(557.57625 20.88) scale(0.12 -0.12)">
     <defs>
      <path id="DejaVuSans-34" d="M 2419 4116 
L 825 1625 
L 2419 1625 
L 2419 4116 
z
M 2253 4666 
L 3047 4666 
L 3047 1625 
L 3713 1625 
L 3713 1100 
L 3047 1100 
L 3047 0 
L 2419 0 
L 2419 1100 
L 313 1100 
L 313 1709 
L 2253 4666 
z
" transform="scale(0.015625)"/>
     </defs>
     <use xlink:href="#DejaVuSans-5a"/>
     <use xlink:href="#DejaVuSans-2d" x="66.755859"/>
     <use xlink:href="#DejaVuSans-4f" x="105.589844"/>
     <use xlink:href="#DejaVuSans-72" x="184.300781"/>
     <use xlink:href="#DejaVuSans-64" x="223.664062"/>
     <use xlink:href="#DejaVuSans-65" x="287.140625"/>
     <use xlink:href="#DejaVuSans-72" x="348.664062"/>
     <use xlink:href="#DejaVuSans-20" x="389.777344"/>
     <use xlink:href="#DejaVuSans-43" x="421.564453"/>
     <use xlink:href="#DejaVuSans-75" x="491.388672"/>
     <use xlink:href="#DejaVuSans-72" x="554.767578"/>
     <use xlink:href="#DejaVuSans-76" x="595.880859"/>
     <use xlink:href="#DejaVuSans-65" x="655.060547"/>
     <use xlink:href="#DejaVuSans-2c" x="716.583984"/>
     <use xlink:href="#DejaVuSans-20" x="748.371094"/>
     <use xlink:href="#DejaVuSans-4c" x="780.158203"/>
     <use xlink:href="#DejaVuSans-65" x="834.121094"/>
     <use xlink:href="#DejaVuSans-76" x="895.644531"/>
     <use xlink:href="#DejaVuSans-65" x="954.824219"/>
     <use xlink:href="#DejaVuSans-6c" x="1016.347656"/>
     <use xlink:href="#DejaVuSans-20" x="1044.130859"/>
     <use xlink:href="#DejaVuSans-34" x="1075.917969"/>
    </g>
   </g>
  </g>
  <g id="axes_5">
   <g id="patch_22">
    <path d="M 10.8 349.2 
L 177.3 349.2 
L 177.3 201.48 
L 10.8 201.48 
z
" style="fill: #ffffff"/>
   </g>
   <g id="matplotlib.axis_9"/>
   <g id="matplotlib.axis_10"/>
   <g id="line2d_5">
    <path d="M 52.425 312.27 
L 52.425 238.41 
L 135.675 238.41 
L 135.675 312.27 
" clip-path="url(#p0d36092ddf)" style="fill: none; stroke: #1f77b4; stroke-width: 1.5; stroke-linecap: square"/>
   </g>
   <g id="patch_23">
    <path d="M 10.8 349.2 
L 10.8 201.48 
" style="fill: none; stroke: #000000; stroke-width: 0.8; stroke-linejoin: miter; stroke-linecap: square"/>
   </g>
   <g id="patch_24">
    <path d="M 177.3 349.2 
L 177.3 201.48 
" style="fill: none; stroke: #000000; stroke-width: 0.8; stroke-linejoin: miter; stroke-linecap: square"/>
   </g>
   <g id="patch_25">
    <path d="M 10.8 349.2 
L 177.3 349.2 
" style="fill: none; stroke: #000000; stroke-width: 0.8; stroke-linejoin: miter; stroke-linecap: square"/>
   </g>
   <g id="patch_26">
    <path d="M 10.8 201.48 
L 177.3 201.48 
" style="fill: none; stroke: #000000; stroke-width: 0.8; stroke-linejoin: miter; stroke-linecap: square"/>
   </g>
   <g id="text_5">
    <!-- Hilbert Curve, Level 1 -->
    <g transform="translate(28.8975 195.48) scale(0.12 -0.12)">
     <defs>
      <path id="DejaVuSans-48" d="M 628 4666 
L 1259 4666 
L 1259 2753 
L 3553 2753 
L 3553 4666 
L 4184 4666 
L 4184 0 
L 3553 0 
L 3553 2222 
L 1259 2222 
L 1259 0 
L 628 0 
L 628 4666 
z
" transform="scale(0.015625)"/>
      <path id="DejaVuSans-69" d="M 603 3500 
L 1178 3500 
L 1178 0 
L 603 0 
L 603 3500 
z
M 603 4863 
L 1178 4863 
L 1178 4134 
L 603 4134 
L 603 4863 
z
" transform="scale(0.015625)"/>
      <path id="DejaVuSans-62" d="M 3116 1747 
Q 3116 2381 2855 2742 
Q 2594 3103 2138 3103 
Q 1681 3103 1420 2742 
Q 1159 2381 1159 1747 
Q 1159 1113 1420 752 
Q 1681 391 2138 391 
Q 2594 391 2855 752 
Q 3116 1113 3116 1747 
z
M 1159 2969 
Q 1341 3281 1617 3432 
Q 1894 3584 2278 3584 
Q 2916 3584 3314 3078 
Q 3713 2572 3713 1747 
Q 3713 922 3314 415 
Q 2916 -91 2278 -91 
Q 1894 -91 1617 61 
Q 1341 213 1159 525 
L 1159 0 
L 581 0 
L 581 4863 
L 1159 4863 
L 1159 2969 
z
" transform="scale(0.015625)"/>
      <path id="DejaVuSans-74" d="M 1172 4494 
L 1172 3500 
L 2356 3500 
L 2356 3053 
L 1172 3053 
L 1172 1153 
Q 1172 725 1289 603 
Q 1406 481 1766 481 
L 2356 481 
L 2356 0 
L 1766 0 
Q 1100 0 847 248 
Q 594 497 594 1153 
L 594 3053 
L 172 3053 
L 172 3500 
L 594 3500 
L 594 4494 
L 1172 4494 
z
" transform="scale(0.015625)"/>
     </defs>
     <use xlink:href="#DejaVuSans-48"/>
     <use xlink:href="#DejaVuSans-69" x="75.195312"/>
     <use xlink:href="#DejaVuSans-6c" x="102.978516"/>
     <use xlink:href="#DejaVuSans-62" x="130.761719"/>
     <use xlink:href="#DejaVuSans-65" x="194.238281"/>
     <use xlink:href="#DejaVuSans-72" x="255.761719"/>
     <use xlink:href="#DejaVuSans-74" x="296.875"/>
     <use xlink:href="#DejaVuSans-20" x="336.083984"/>
     <use xlink:href="#DejaVuSans-43" x="367.871094"/>
     <use xlink:href="#DejaVuSans-75" x="437.695312"/>
     <use xlink:href="#DejaVuSans-72" x="501.074219"/>
     <use xlink:href="#DejaVuSans-76" x="542.1875"/>
     <use xlink:href="#DejaVuSans-65" x="601.367188"/>
     <use xlink:href="#DejaVuSans-2c" x="662.890625"/>
     <use xlink:href="#DejaVuSans-20" x="694.677734"/>
     <use xlink:href="#DejaVuSans-4c" x="726.464844"/>
     <use xlink:href="#DejaVuSans-65" x="780.427734"/>
     <use xlink:href="#DejaVuSans-76" x="841.951172"/>
     <use xlink:href="#DejaVuSans-65" x="901.130859"/>
     <use xlink:href="#DejaVuSans-6c" x="962.654297"/>
     <use xlink:href="#DejaVuSans-20" x="990.4375"/>
     <use xlink:href="#DejaVuSans-31" x="1022.224609"/>
    </g>
   </g>
  </g>
  <g id="axes_6">
   <g id="patch_27">
    <path d="M 188.1 349.2 
L 354.6 349.2 
L 354.6 201.48 
L 188.1 201.48 
z
" style="fill: #ffffff"/>
   </g>
   <g id="matplotlib.axis_11"/>
   <g id="matplotlib.axis_12"/>
   <g id="line2d_6">
    <path d="M 208.9125 330.735 
L 250.5375 330.735 
L 250.5375 293.805 
L 208.9125 293.805 
L 208.9125 256.875 
L 208.9125 219.945 
L 250.5375 219.945 
L 250.5375 256.875 
L 292.1625 256.875 
L 292.1625 219.945 
L 333.7875 219.945 
L 333.7875 256.875 
L 333.7875 293.805 
L 292.1625 293.805 
L 292.1625 330.735 
L 333.7875 330.735 
" clip-path="url(#pd1cbc1406f)" style="fill: none; stroke: #1f77b4; stroke-width: 1.5; stroke-linecap: square"/>
   </g>
   <g id="patch_28">
    <path d="M 188.1 349.2 
L 188.1 201.48 
" style="fill: none; stroke: #000000; stroke-width: 0.8; stroke-linejoin: miter; stroke-linecap: square"/>
   </g>
   <g id="patch_29">
    <path d="M 354.6 349.2 
L 354.6 201.48 
" style="fill: none; stroke: #000000; stroke-width: 0.8; stroke-linejoin: miter; stroke-linecap: square"/>
   </g>
   <g id="patch_30">
    <path d="M 188.1 349.2 
L 354.6 349.2 
" style="fill: none; stroke: #000000; stroke-width: 0.8; stroke-linejoin: miter; stroke-linecap: square"/>
   </g>
   <g id="patch_31">
    <path d="M 188.1 201.48 
L 354.6 201.48 
" style="fill: none; stroke: #000000; stroke-width: 0.8; stroke-linejoin: miter; stroke-linecap: square"/>
   </g>
   <g id="text_6">
    <!-- Hilbert Curve, Level 2 -->
    <g transform="translate(206.1975 195.48) scale(0.12 -0.12)">
     <use xlink:href="#DejaVuSans-48"/>
     <use xlink:href="#DejaVuSans-69" x="75.195312"/>
     <use xlink:href="#DejaVuSans-6c" x="102.978516"/>
     <use xlink:href="#DejaVuSans-62" x="130.761719"/>
     <use xlink:href="#DejaVuSans-65" x="194.238281"/>
     <use xlink:href="#DejaVuSans-72" x="255.761719"/>
     <use xlink:href="#DejaVuSans-74" x="296.875"/>
     <use xlink:href="#DejaVuSans-20" x="336.083984"/>
     <use xlink:href="#DejaVuSans-43" x="367.871094"/>
     <use xlink:href="#DejaVuSans-75" x="437.695312"/>
     <use xlink:href="#DejaVuSans-72" x="501.074219"/>
     <use xlink:href="#DejaVuSans-76" x="542.1875"/>
     <use xlink:href="#DejaVuSans-65" x="601.367188"/>
     <use xlink:href="#DejaVuSans-2c" x="662.890625"/>
     <use xlink:href="#DejaVuSans-20" x="694.677734"/>
     <use xlink:href="#DejaVuSans-4c" x="726.464844"/>
     <use xlink:href="#DejaVuSans-65" x="780.427734"/>
     <use xlink:href="#DejaVuSans-76" x="841.951172"/>
     <use xlink:href="#DejaVuSans-65" x="901.130859"/>
     <use xlink:href="#DejaVuSans-6c" x="962.654297"/>
     <use xlink:href="#DejaVuSans-20" x="990.4375"/>
     <use xlink:href="#DejaVuSans-32" x="1022.224609"/>
    </g>
   </g>
  </g>
  <g id="axes_7">
   <g id="patch_32">
    <path d="M 365.4 349.2 
L 531.9 349.2 
L 531.9 201.48 
L 365.4 201.48 
z
" style="fill: #ffffff"/>
   </g>
   <g id="matplotlib.axis_13"/>
   <g id="matplotlib.axis_14"/>
   <g id="line2d_7">
    <path d="M 375.80625 339.9675 
L 375.80625 321.5025 
L 396.61875 321.5025 
L 396.61875 339.9675 
L 417.43125 339.9675 
L 438.24375 339.9675 
L 438.24375 321.5025 
L 417.43125 321.5025 
L 417.43125 303.0375 
L 438.24375 303.0375 
L 438.24375 284.5725 
L 417.43125 284.5725 
L 396.61875 284.5725 
L 396.61875 303.0375 
L 375.80625 303.0375 
L 375.80625 284.5725 
L 375.80625 266.1075 
L 396.61875 266.1075 
L 396.61875 247.6425 
L 375.80625 247.6425 
L 375.80625 229.1775 
L 375.80625 210.7125 
L 396.61875 210.7125 
L 396.61875 229.1775 
L 417.43125 229.1775 
L 417.43125 210.7125 
L 438.24375 210.7125 
L 438.24375 229.1775 
L 438.24375 247.6425 
L 417.43125 247.6425 
L 417.43125 266.1075 
L 438.24375 266.1075 
L 459.05625 266.1075 
L 479.86875 266.1075 
L 479.86875 247.6425 
L 459.05625 247.6425 
L 459.05625 229.1775 
L 459.05625 210.7125 
L 479.86875 210.7125 
L 479.86875 229.1775 
L 500.68125 229.1775 
L 500.68125 210.7125 
L 521.49375 210.7125 
L 521.49375 229.1775 
L 521.49375 247.6425 
L 500.68125 247.6425 
L 500.68125 266.1075 
L 521.49375 266.1075 
L 521.49375 284.5725 
L 521.49375 303.0375 
L 500.68125 303.0375 
L 500.68125 284.5725 
L 479.86875 284.5725 
L 459.05625 284.5725 
L 459.05625 303.0375 
L 479.86875 303.0375 
L 479.86875 321.5025 
L 459.05625 321.5025 
L 459.05625 339.9675 
L 479.86875 339.9675 
L 500.68125 339.9675 
L 500.68125 321.5025 
L 521.49375 321.5025 
L 521.49375 339.9675 
" clip-path="url(#pb2ba56c030)" style="fill: none; stroke: #1f77b4; stroke-width: 1.5; stroke-linecap: square"/>
   </g>
   <g id="patch_33">
    <path d="M 365.4 349.2 
L 365.4 201.48 
" style="fill: none; stroke: #000000; stroke-width: 0.8; stroke-linejoin: miter; stroke-linecap: square"/>
   </g>
   <g id="patch_34">
    <path d="M 531.9 349.2 
L 531.9 201.48 
" style="fill: none; stroke: #000000; stroke-width: 0.8; stroke-linejoin: miter; stroke-linecap: square"/>
   </g>
   <g id="patch_35">
    <path d="M 365.4 349.2 
L 531.9 349.2 
" style="fill: none; stroke: #000000; stroke-width: 0.8; stroke-linejoin: miter; stroke-linecap: square"/>
   </g>
   <g id="patch_36">
    <path d="M 365.4 201.48 
L 531.9 201.48 
" style="fill: none; stroke: #000000; stroke-width: 0.8; stroke-linejoin: miter; stroke-linecap: square"/>
   </g>
   <g id="text_7">
    <!-- Hilbert Curve, Level 3 -->
    <g transform="translate(383.4975 195.48) scale(0.12 -0.12)">
     <use xlink:href="#DejaVuSans-48"/>
     <use xlink:href="#DejaVuSans-69" x="75.195312"/>
     <use xlink:href="#DejaVuSans-6c" x="102.978516"/>
     <use xlink:href="#DejaVuSans-62" x="130.761719"/>
     <use xlink:href="#DejaVuSans-65" x="194.238281"/>
     <use xlink:href="#DejaVuSans-72" x="255.761719"/>
     <use xlink:href="#DejaVuSans-74" x="296.875"/>
     <use xlink:href="#DejaVuSans-20" x="336.083984"/>
     <use xlink:href="#DejaVuSans-43" x="367.871094"/>
     <use xlink:href="#DejaVuSans-75" x="437.695312"/>
     <use xlink:href="#DejaVuSans-72" x="501.074219"/>
     <use xlink:href="#DejaVuSans-76" x="542.1875"/>
     <use xlink:href="#DejaVuSans-65" x="601.367188"/>
     <use xlink:href="#DejaVuSans-2c" x="662.890625"/>
     <use xlink:href="#DejaVuSans-20" x="694.677734"/>
     <use xlink:href="#DejaVuSans-4c" x="726.464844"/>
     <use xlink:href="#DejaVuSans-65" x="780.427734"/>
     <use xlink:href="#DejaVuSans-76" x="841.951172"/>
     <use xlink:href="#DejaVuSans-65" x="901.130859"/>
     <use xlink:href="#DejaVuSans-6c" x="962.654297"/>
     <use xlink:href="#DejaVuSans-20" x="990.4375"/>
     <use xlink:href="#DejaVuSans-33" x="1022.224609"/>
    </g>
   </g>
  </g>
  <g id="axes_8">
   <g id="patch_37">
    <path d="M 542.7 349.2 
L 709.2 349.2 
L 709.2 201.48 
L 542.7 201.48 
z
" style="fill: #ffffff"/>
   </g>
   <g id="matplotlib.axis_15"/>
   <g id="matplotlib.axis_16"/>
   <g id="line2d_8">
    <path d="M 547.903125 344.58375 
L 558.309375 344.58375 
L 558.309375 335.35125 
L 547.903125 335.35125 
L 547.903125 316.88625 
L 558.309375 316.88625 
L 558.309375 326.11875 
L 568.715625 326.11875 
L 568.715625 316.88625 
L 579.121875 316.88625 
L 579.121875 335.35125 
L 568.715625 335.35125 
L 568.715625 344.58375 
L 589.528125 344.58375 
L 589.528125 335.35125 
L 599.934375 335.35125 
L 599.934375 344.58375 
L 620.746875 344.58375 
L 620.746875 335.35125 
L 610.340625 335.35125 
L 610.340625 326.11875 
L 620.746875 326.11875 
L 620.746875 316.88625 
L 599.934375 316.88625 
L 599.934375 326.11875 
L 589.528125 326.11875 
L 589.528125 298.42125 
L 599.934375 298.42125 
L 599.934375 307.65375 
L 620.746875 307.65375 
L 620.746875 298.42125 
L 610.340625 298.42125 
L 610.340625 289.18875 
L 620.746875 289.18875 
L 620.746875 279.95625 
L 599.934375 279.95625 
L 599.934375 289.18875 
L 589.528125 289.18875 
L 589.528125 279.95625 
L 568.715625 279.95625 
L 568.715625 289.18875 
L 579.121875 289.18875 
L 579.121875 307.65375 
L 568.715625 307.65375 
L 568.715625 298.42125 
L 558.309375 298.42125 
L 558.309375 307.65375 
L 547.903125 307.65375 
L 547.903125 289.18875 
L 558.309375 289.18875 
L 558.309375 279.95625 
L 547.903125 279.95625 
L 547.903125 261.49125 
L 558.309375 261.49125 
L 558.309375 270.72375 
L 579.121875 270.72375 
L 579.121875 261.49125 
L 568.715625 261.49125 
L 568.715625 252.25875 
L 579.121875 252.25875 
L 579.121875 243.02625 
L 558.309375 243.02625 
L 558.309375 252.25875 
L 547.903125 252.25875 
L 547.903125 233.79375 
L 558.309375 233.79375 
L 558.309375 224.56125 
L 547.903125 224.56125 
L 547.903125 206.09625 
L 558.309375 206.09625 
L 558.309375 215.32875 
L 568.715625 215.32875 
L 568.715625 206.09625 
L 579.121875 206.09625 
L 579.121875 224.56125 
L 568.715625 224.56125 
L 568.715625 233.79375 
L 599.934375 233.79375 
L 599.934375 224.56125 
L 589.528125 224.56125 
L 589.528125 206.09625 
L 599.934375 206.09625 
L 599.934375 215.32875 
L 610.340625 215.32875 
L 610.340625 206.09625 
L 620.746875 206.09625 
L 620.746875 224.56125 
L 610.340625 224.56125 
L 610.340625 233.79375 
L 620.746875 233.79375 
L 620.746875 252.25875 
L 610.340625 252.25875 
L 610.340625 243.02625 
L 589.528125 243.02625 
L 589.528125 252.25875 
L 599.934375 252.25875 
L 599.934375 261.49125 
L 589.528125 261.49125 
L 589.528125 270.72375 
L 610.340625 270.72375 
L 610.340625 261.49125 
L 620.746875 261.49125 
L 620.746875 270.72375 
L 631.153125 270.72375 
L 631.153125 261.49125 
L 641.559375 261.49125 
L 641.559375 270.72375 
L 662.371875 270.72375 
L 662.371875 261.49125 
L 651.965625 261.49125 
L 651.965625 252.25875 
L 662.371875 252.25875 
L 662.371875 243.02625 
L 641.559375 243.02625 
L 641.559375 252.25875 
L 631.153125 252.25875 
L 631.153125 233.79375 
L 641.559375 233.79375 
L 641.559375 224.56125 
L 631.153125 224.56125 
L 631.153125 206.09625 
L 641.559375 206.09625 
L 641.559375 215.32875 
L 651.965625 215.32875 
L 651.965625 206.09625 
L 662.371875 206.09625 
L 662.371875 224.56125 
L 651.965625 224.56125 
L 651.965625 233.79375 
L 683.184375 233.79375 
L 683.184375 224.56125 
L 672.778125 224.56125 
L 672.778125 206.09625 
L 683.184375 206.09625 
L 683.184375 215.32875 
L 693.590625 215.32875 
L 693.590625 206.09625 
L 703.996875 206.09625 
L 703.996875 224.56125 
L 693.590625 224.56125 
L 693.590625 233.79375 
L 703.996875 233.79375 
L 703.996875 252.25875 
L 693.590625 252.25875 
L 693.590625 243.02625 
L 672.778125 243.02625 
L 672.778125 252.25875 
L 683.184375 252.25875 
L 683.184375 261.49125 
L 672.778125 261.49125 
L 672.778125 270.72375 
L 693.590625 270.72375 
L 693.590625 261.49125 
L 703.996875 261.49125 
L 703.996875 279.95625 
L 693.590625 279.95625 
L 693.590625 289.18875 
L 703.996875 289.18875 
L 703.996875 307.65375 
L 693.590625 307.65375 
L 693.590625 298.42125 
L 683.184375 298.42125 
L 683.184375 307.65375 
L 672.778125 307.65375 
L 672.778125 289.18875 
L 683.184375 289.18875 
L 683.184375 279.95625 
L 662.371875 279.95625 
L 662.371875 289.18875 
L 651.965625 289.18875 
L 651.965625 279.95625 
L 631.153125 279.95625 
L 631.153125 289.18875 
L 641.559375 289.18875 
L 641.559375 298.42125 
L 631.153125 298.42125 
L 631.153125 307.65375 
L 651.965625 307.65375 
L 651.965625 298.42125 
L 662.371875 298.42125 
L 662.371875 326.11875 
L 651.965625 326.11875 
L 651.965625 316.88625 
L 631.153125 316.88625 
L 631.153125 326.11875 
L 641.559375 326.11875 
L 641.559375 335.35125 
L 631.153125 335.35125 
L 631.153125 344.58375 
L 651.965625 344.58375 
L 651.965625 335.35125 
L 662.371875 335.35125 
L 662.371875 344.58375 
L 683.184375 344.58375 
L 683.184375 335.35125 
L 672.778125 335.35125 
L 672.778125 316.88625 
L 683.184375 316.88625 
L 683.184375 326.11875 
L 693.590625 326.11875 
L 693.590625 316.88625 
L 703.996875 316.88625 
L 703.996875 335.35125 
L 693.590625 335.35125 
L 693.590625 344.58375 
L 703.996875 344.58375 
L 703.996875 344.58375 
" clip-path="url(#p4e148526b3)" style="fill: none; stroke: #1f77b4; stroke-width: 1.5; stroke-linecap: square"/>
   </g>
   <g id="patch_38">
    <path d="M 542.7 349.2 
L 542.7 201.48 
" style="fill: none; stroke: #000000; stroke-width: 0.8; stroke-linejoin: miter; stroke-linecap: square"/>
   </g>
   <g id="patch_39">
    <path d="M 709.2 349.2 
L 709.2 201.48 
" style="fill: none; stroke: #000000; stroke-width: 0.8; stroke-linejoin: miter; stroke-linecap: square"/>
   </g>
   <g id="patch_40">
    <path d="M 542.7 349.2 
L 709.2 349.2 
" style="fill: none; stroke: #000000; stroke-width: 0.8; stroke-linejoin: miter; stroke-linecap: square"/>
   </g>
   <g id="patch_41">
    <path d="M 542.7 201.48 
L 709.2 201.48 
" style="fill: none; stroke: #000000; stroke-width: 0.8; stroke-linejoin: miter; stroke-linecap: square"/>
   </g>
   <g id="text_8">
    <!-- Hilbert Curve, Level 4 -->
    <g transform="translate(560.7975 195.48) scale(0.12 -0.12)">
     <use xlink:href="#DejaVuSans-48"/>
     <use xlink:href="#DejaVuSans-69" x="75.195312"/>
     <use xlink:href="#DejaVuSans-6c" x="102.978516"/>
     <use xlink:href="#DejaVuSans-62" x="130.761719"/>
     <use xlink:href="#DejaVuSans-65" x="194.238281"/>
     <use xlink:href="#DejaVuSans-72" x="255.761719"/>
     <use xlink:href="#DejaVuSans-74" x="296.875"/>
     <use xlink:href="#DejaVuSans-20" x="336.083984"/>
     <use xlink:href="#DejaVuSans-43" x="367.871094"/>
     <use xlink:href="#DejaVuSans-75" x="437.695312"/>
     <use xlink:href="#DejaVuSans-72" x="501.074219"/>
     <use xlink:href="#DejaVuSans-76" x="542.1875"/>
     <use xlink:href="#DejaVuSans-65" x="601.367188"/>
     <use xlink:href="#DejaVuSans-2c" x="662.890625"/>
     <use xlink:href="#DejaVuSans-20" x="694.677734"/>
     <use xlink:href="#DejaVuSans-4c" x="726.464844"/>
     <use xlink:href="#DejaVuSans-65" x="780.427734"/>
     <use xlink:href="#DejaVuSans-76" x="841.951172"/>
     <use xlink:href="#DejaVuSans-65" x="901.130859"/>
     <use xlink:href="#DejaVuSans-6c" x="962.654297"/>
     <use xlink:href="#DejaVuSans-20" x="990.4375"/>
     <use xlink:href="#DejaVuSans-34" x="1022.224609"/>
    </g>
   </g>
  </g>
 </g>
 <defs>
  <clipPath id="pf8426c279a">
   <rect x="10.8" y="26.88" width="166.5" height="147.72"/>
  </clipPath>
  <clipPath id="pf53d5a641e">
   <rect x="188.1" y="26.88" width="166.5" height="147.72"/>
  </clipPath>
  <clipPath id="p93e0d9aab3">
   <rect x="365.4" y="26.88" width="166.5" height="147.72"/>
  </clipPath>
  <clipPath id="p1658a12b4f">
   <rect x="542.7" y="26.88" width="166.5" height="147.72"/>
  </clipPath>
  <clipPath id="p0d36092ddf">
   <rect x="10.8" y="201.48" width="166.5" height="147.72"/>
  </clipPath>
  <clipPath id="pd1cbc1406f">
   <rect x="188.1" y="201.48" width="166.5" height="147.72"/>
  </clipPath>
  <clipPath id="pb2ba56c030">
   <rect x="365.4" y="201.48" width="166.5" height="147.72"/>
  </clipPath>
  <clipPath id="p4e148526b3">
   <rect x="542.7" y="201.48" width="166.5" height="147.72"/>
  </clipPath>
 </defs>
</svg>
